<svg xml:space="preserve" viewBox="65.89439999999999 283.416576 1136.64 454.656" version="1.1" xmlns:xlink="http://www.w3.org/1999/xlink" xmlns="http://www.w3.org/2000/svg" style="max-height: 500px" width="1136.64" height="454.656">
<desc>Created with Fabric.js 5.3.0</desc>
<defs>
</defs>
<g id="background-logo" transform="matrix(1 0 0 1 640 512)">
<rect height="1024" width="1280" ry="0" rx="0" y="-512" x="-640" paint-order="stroke" style="stroke: none; stroke-width: 0; stroke-dasharray: none; stroke-linecap: butt; stroke-dashoffset: 0; stroke-linejoin: miter; stroke-miterlimit: 4; fill: rgb(0,49,83); fill-rule: nonzero; opacity: 1;"/>
</g>
<g id="text-logo" transform="matrix(1.921153846153847 0 0 1.921153846153847 777.4011923298382 502.89271473477385)">
<g paint-order="stroke" style="">
		<g id="text-logo-path-0" transform="matrix(1 0 0 1 0 0)">
<path stroke-linecap="round" d="M 22.58 0 L 22.58 -28.85 L 5.02 -28.85 L 5.02 0 Z M 5.02 -35.12 L 22.58 -35.12 L 22.58 -61.09 C 22.58 -67.74 25.09 -70.25 31.74 -70.25 L 38.51 -70.25 C 45.16 -70.25 47.67 -67.74 47.67 -61.09 L 47.67 0 L 65.23 0 L 65.23 -61.09 C 65.23 -67.74 67.74 -70.25 74.39 -70.25 L 81.16 -70.25 C 87.81 -70.25 90.32 -67.74 90.32 -61.09 L 90.32 0 L 107.88 0 L 107.88 -61.09 C 107.88 -76.27 96.34 -87.81 81.16 -87.81 L 74.39 -87.81 C 67.36 -87.81 61.09 -85.3 56.45 -81.16 C 51.81 -85.3 45.54 -87.81 38.51 -87.81 L 31.74 -87.81 C 16.56 -87.81 5.02 -76.27 5.02 -61.09 Z M 116.03 -28.98 L 116.03 -26.72 C 116.03 -11.54 127.57 0 142.75 0 L 162.07 0 C 177.25 0 188.79 -11.54 188.79 -26.72 L 188.79 -87.81 L 171.23 -87.81 L 171.23 -26.72 C 171.23 -20.07 168.72 -17.56 162.07 -17.56 L 142.75 -17.56 C 136.1 -17.56 133.6 -20.07 133.6 -26.72 L 133.6 -28.98 Z M 116.03 -35.25 L 133.6 -35.25 L 133.6 -87.81 L 116.03 -87.81 Z M 214.5 0 L 214.5 -28.85 L 196.94 -28.85 L 196.94 0 Z M 196.94 -35.12 L 214.5 -35.12 L 214.5 -61.09 C 214.5 -67.74 217.01 -70.25 223.66 -70.25 L 242.98 -70.25 C 249.63 -70.25 252.14 -67.74 252.14 -61.09 L 252.14 0 L 269.7 0 L 269.7 -61.09 C 269.7 -76.27 258.16 -87.81 242.98 -87.81 L 223.66 -87.81 C 208.48 -87.81 196.94 -76.27 196.94 -61.09 Z M 277.85 -28.85 L 277.85 0 L 323.89 0 C 339.07 0 350.61 -11.54 350.61 -26.72 L 350.61 -61.09 C 350.61 -76.27 339.07 -87.81 323.89 -87.81 L 277.85 -87.81 L 277.85 -35.12 L 295.41 -35.12 L 295.41 -70.25 L 323.89 -70.25 C 330.54 -70.25 333.05 -67.74 333.05 -61.09 L 333.05 -26.72 C 333.05 -20.07 330.54 -17.56 323.89 -17.56 L 295.41 -17.56 L 295.41 -28.85 Z M 358.76 -87.81 L 358.76 -61.84 C 358.76 -46.66 370.3 -35.12 385.48 -35.12 L 404.8 -35.12 C 419.98 -35.12 431.52 -46.66 431.52 -61.84 L 431.52 -87.81 L 413.96 -87.81 L 413.96 -61.84 C 413.96 -55.19 411.45 -52.69 404.8 -52.69 L 385.48 -52.69 C 378.83 -52.69 376.32 -55.19 376.32 -61.84 L 376.32 -87.81 Z M 387.61 0 L 405.18 0 L 405.18 -28.85 L 387.61 -28.85 Z" transform="translate(-218.27, 43.905)" paint-order="stroke" style="stroke: none; stroke-width: 0; stroke-dasharray: none; stroke-linecap: butt; stroke-dashoffset: 0; stroke-linejoin: miter; stroke-miterlimit: 4; fill: rgb(140,204,243); fill-rule: nonzero; opacity: 1;"/>
</g>
</g>
</g>
<g id="shape-640cb55f-fb8e-4112-bf42-9ccded44bca8" transform="matrix(1.8101104103446408 0 0 1.8101104103446408 307.79110152128516 511.53469958081035)">
<g paint-order="stroke" style="">
		<g id="path-01" transform="matrix(1 0 0 1 -14.532201167665278 7.613022759266059)">
<path stroke-linecap="round" d="M 202.63092 192.76263 C 196.44946000000002 185.41131000000001 190.61114 178.46771 186.81665 168.05755 C 184.82983000000002 162.60687 183.979 154.96312999999998 183.07758 146.87054 C 181.89588 136.2536 180.67341000000002 125.27575 176.64869000000002 119.30993000000001 C 169.40284000000003 108.57079 157.06574 109.20245000000001 145.13801 109.81011000000001 C 135.05659 110.32525000000001 124.63209 110.85863 116.91889 104.79119000000001 C 106.66273000000001 96.72253000000002 104.72809000000001 83.70464000000001 102.67994 69.92266000000001 C 100.4167 54.692310000000006 98.07655 38.94451000000001 83.44666000000001 30.626880000000007 C 63.0459 19.02911 29.05463 13.49847 0 15.70178 L 0 16.53363 C 28.91724 14.324039999999998 62.76892 19.82153 83.07446 31.36475 C 97.35907 39.48597 99.66803 55.02472 101.90118000000001 70.05286000000001 C 103.88421000000001 83.39399 105.93444000000001 97.19086000000001 116.44989000000001 105.46283000000001 C 124.39008000000001 111.70960000000001 134.95874 111.16931000000001 145.17566000000002 110.64618000000002 C 157.43689000000003 110.01801000000002 169.01239 109.42859000000001 176.00757000000002 119.79651000000001 C 179.91449000000003 125.58869000000001 181.12464000000003 136.45807000000002 182.29498 146.96875 C 183.20233000000002 155.11511 184.05914 162.81024 186.08197 168.35913 C 189.9281 178.91094999999999 195.81268 185.9093 202.04309 193.31885 C 204.54889 196.30005 207.14075 199.38178 209.65625 202.77301 C 217.69489 213.60956 220.33191 225.16705 220.12781 236.24005 L 220.92462 236.24005 C 221.13147 225.01086 218.45080000000002 213.2763 210.27533 202.25445 C 207.74475 198.84375 205.14484 195.75177 202.63092 192.76263 z" transform="translate(-110.46780820798796, -125.73306275926603)" paint-order="stroke" style="stroke: none; stroke-width: 1; stroke-dasharray: none; stroke-linecap: butt; stroke-dashoffset: 0; stroke-linejoin: miter; stroke-miterlimit: 4; fill: rgb(140,201,240); fill-rule: nonzero; opacity: 1;"/>
</g>
		<g id="path-01" transform="matrix(1 0 0 1 -8.566198573929853 4.300734488077296)">
<path stroke-linecap="round" d="M 209.53363 189.20459 C 203.20807 184.02233999999999 197.2337 179.12677 193.15520999999998 170.72803 C 189.56670999999997 163.33905 188.59857 152.73011 187.66271999999998 142.4718 C 186.59777999999997 130.79492 185.59148999999996 119.76678 181.07733 112.71246 C 173.32538 100.59808 159.70391999999998 101.61919999999999 146.53209999999999 102.61064999999999 C 135.39172 103.44560999999999 123.87486999999999 104.31138999999999 115.54790999999999 97.51177 C 105.96623999999998 89.68529 105.07231999999999 77.63146 104.12517999999999 64.86944 C 103.05376999999999 50.420339999999996 101.94530999999999 35.48016 87.05236999999998 27.402339999999995 C 65.95026 15.95654 29.65137 8.59833 0 8.6015 L 0 9.43188 C 29.52502 9.422179999999999 65.67944 16.74951 86.69415 28.14715 C 101.19445999999999 36.01245 102.28520999999999 50.71624 103.3399 64.93456 C 104.25854 77.31737000000001 105.20837 90.12163000000001 115.06707 98.17431 C 123.63171 105.16924 135.30242 104.29431000000001 146.58746 103.44561 C 160.13366 102.42791 172.92791 101.46618000000001 180.42547 113.18304 C 184.82665 120.06036 185.86955999999998 131.49395 186.87852999999998 142.55181000000002 C 187.82134 152.89001000000002 188.79699 163.57891 192.45487999999997 171.11181000000002 C 196.61350999999996 179.67504000000002 202.65568999999996 184.62542000000002 209.05228999999997 189.86706 C 212.45841999999996 192.65862 215.98130999999998 195.54388 219.26322999999996 199.05963 C 230.56339999999997 211.16144 233.27921999999995 223.72046 231.60032999999996 236.24005 L 232.41465999999997 236.24005 C 234.10239999999996 223.54144 231.32444999999996 210.78796 219.82261999999997 198.47027 C 216.50415 194.91571 212.96027 192.01215 209.53363 189.20459 z" transform="translate(-116.43381080172338, -122.42077448807727)" paint-order="stroke" style="stroke: none; stroke-width: 1; stroke-dasharray: none; stroke-linecap: butt; stroke-dashoffset: 0; stroke-linejoin: miter; stroke-miterlimit: 4; fill: rgb(140,201,240); fill-rule: nonzero; opacity: 1;"/>
</g>
		<g id="path-01" transform="matrix(1 0 0 1 0 -0.00001999999999213742)">
<path stroke-linecap="round" d="M 249.28632 210.11749 C 247.41943999999998 202.06372 242.03186 195.54736 232.81696 190.19488 C 228.67395 187.78826 224.78479 186.0064 221.02417 184.28393 C 210.1554 179.30383 201.57086 175.37121 195.66803 160.28704 C 192.45006999999998 152.0642 192.30321999999998 141.89158999999998 192.16071 132.0548 C 192.00312 121.13292 191.85413 110.81756 187.84345 102.95794000000001 C 180.50672 88.57623000000001 165.1308 90.2279 150.26044 91.82812000000001 C 137.82007 93.16571000000002 124.95593999999998 94.54895000000002 116.28582999999999 86.95544000000001 C 106.98217999999999 78.81030000000001 107.43346999999999 67.96148000000001 107.91107 56.47644000000001 C 108.46399 43.18903000000001 109.03569999999999 29.44812000000001 92.85137999999999 20.852900000000012 C 76.49017 12.16406 46.95923 7.64319 25.39703 4.34216 C 22.43512 3.88867 19.62487 3.45923 17.021720000000002 3.0446099999999996 C 13.920520000000002 2.5511399999999997 10.746700000000002 1.9617899999999997 7.386770000000002 1.3381299999999996 C 4.93768 0.88348 2.47034 0.42719 0 0 L 0 1.38898 C 2.49939 1.8144600000000002 4.99634 2.27014 7.47498 2.7248 C 10.76929 3.32905 13.88123 3.90015 16.92762 4.37989 C 19.34357 4.76136 21.94086 5.157719999999999 24.674690000000002 5.57349 C 46.283150000000006 8.86652 75.87702 13.375979999999998 92.13177999999999 22.08429 C 107.70294999999999 30.4259 107.2447 43.3147 106.75953 56.95966 C 106.36103 68.17164 105.94848999999999 79.7663 115.52479 88.15137 C 124.43525 95.9527 137.43446 94.57636 150.00549999999998 93.24109 C 165.24640999999997 91.62256 179.64239999999998 90.09772 186.77795999999998 103.89685 C 190.72735999999998 111.53485 190.93713999999997 121.74628 191.1598 132.55737 C 191.36146 142.36792 191.5702 152.51196 194.79505 160.77478 C 200.76728 176.07935 209.80201 180.42553999999998 220.26313 185.45696999999998 C 223.96992 187.23998999999998 227.80262 189.08355999999998 231.87354 191.54155999999998 C 240.75501 196.90428999999997 245.93714 203.33386 247.71520999999998 211.19798999999998 C 249.4834 219.01622999999998 247.63860999999997 227.53862999999998 243.99603 236.24003999999996 L 245.2301 236.24003999999996 C 249.15314 227.1474 251.1709 218.24579 249.28632 210.11749 z M 249.1795 217.87085 C 249.20721 215.53644 248.98834 213.24347 248.48169 211.00269 C 246.67077999999998 202.99463 241.4585 196.45087 232.56627999999998 191.00562 C 241.49669999999998 196.22437 246.71886999999998 202.54255 248.52147999999997 210.31855 C 249.08862 212.76428 249.28412 215.28857 249.1795 217.87085 z" transform="translate(-125.00000937565324, -118.12001999999998)" paint-order="stroke" style="stroke: none; stroke-width: 1; stroke-dasharray: none; stroke-linecap: butt; stroke-dashoffset: 0; stroke-linejoin: miter; stroke-miterlimit: 4; fill: rgb(140,201,240); fill-rule: nonzero; opacity: 1;"/>
</g>
		<g id="path-01" transform="matrix(1 0 0 1 -1.7800961485782523 1.7955600000000373)">
<path stroke-linecap="round" d="M 232.91638 193.72327 C 228.48614 189.93683000000001 223.50091 187.54383 218.67914000000002 185.22858000000002 C 211.12726 181.60321000000002 203.99433000000002 178.17768 198.94831000000002 169.85315000000003 C 192.10743000000002 158.56574000000003 191.01777 145.85516 189.96467 133.56372000000002 C 189.37629 126.69897000000002 188.76795 119.60126000000002 187.17701000000002 112.76166000000002 C 182.19764000000004 91.35419000000002 166.54151000000002 92.98755000000003 149.96839000000003 94.71918000000002 C 137.58668000000003 96.01099000000002 124.78541000000003 97.34967000000002 115.51081000000002 89.19196000000002 C 105.51014000000002 80.39686000000002 105.78925000000002 68.61487000000002 106.05982000000002 57.22236000000002 C 106.39704000000002 42.99488000000002 106.74555000000002 28.283150000000024 86.53815000000002 20.224740000000025 C 66.89771 12.39221 30.27393 6.60858 0 3.59113 L 0 4.42408 C 30.17096 7.43873 66.69037 13.20405 86.26062 21.00825 C 105.58759 28.71571 105.62201 42.12904 105.29016 56.41194 C 104.94617 44.706500000000005 103.33777 33.175790000000006 91.61975 25.478900000000003 C 76.32611 15.43536 43.02435 10.98755 23.12732 8.33075 C 21.23785 8.07831 19.45331 7.8396 17.7962 7.6123 C 15.761529999999999 7.332450000000001 13.59619 7.008050000000001 11.33831 6.669980000000001 C 7.74817 6.13202 3.91577 5.56177 0 5.0769 L 0 5.9201 C 3.87653 6.4013 7.67181 6.96582 11.22803 7.4981 C 13.48914 7.83733 15.65723 8.16174 17.69513 8.44158 C 19.352719999999998 8.66997 21.13837 8.90758 23.02893 9.16002 C 42.862489999999994 11.808819999999999 76.05774 16.24291 91.20563 26.19164 C 104.22522000000001 34.7423 104.41455 48.3073 104.59796 61.424549999999996 C 104.76141 73.09118 104.92981 85.15415999999999 114.37488 93.1588 C 124.58423 101.81114 136.83209 100.56151 148.67328 99.35192 C 163.18488 97.87047000000001 176.89343 96.46899 184.17316 114.58111000000001 C 187.07166 121.79083000000001 187.77026999999998 130.19183 188.44635 138.31646 C 189.12891 146.52325000000002 189.83453 155.00994 192.75719999999998 162.59771 C 198.2771 176.92913000000001 206.54216999999997 182.32958000000002 216.11205999999999 188.58093 C 219.00725999999997 190.47247 222.00145999999998 192.42907 225.11774 194.7489 C 240.82093 206.4364 242.47235 221.42432 238.59046 236.24005 L 239.42438 236.24005 C 243.32617000000002 221.20898 241.58972 205.98723999999999 225.57056 194.0636 C 222.43439 191.72888 219.43055 189.7666 216.52509 187.86939 C 207.07245 181.69336 198.90906 176.36036000000001 193.48652 162.28022 C 190.60957000000002 154.81013000000002 189.90876 146.3874 189.23109000000002 138.24226000000002 C 188.55018 130.05366 187.84559000000002 121.58528000000001 184.89820000000003 114.25221000000002 C 177.39094000000003 95.57808000000001 163.40320000000003 97.00239000000002 148.59797000000003 98.51930000000002 C 136.91169000000002 99.71058000000002 124.82630000000003 100.94764000000002 114.86646000000003 92.50551000000002 C 108.64979000000004 87.23616000000001 106.58582000000003 80.31575000000001 105.84626000000003 72.66060000000002 C 106.85719000000003 78.90798000000001 109.30732000000003 84.82234000000001 115.00849000000002 89.83614000000001 C 124.53583000000002 98.21547000000001 137.50385000000003 96.86080000000001 150.04529000000002 95.55178000000001 C 166.2699 93.85903 181.59638 92.25649000000001 186.41223000000002 112.96267 C 187.98865000000004 119.74056 188.59424 126.80636 189.17944000000003 133.63912 C 190.24163000000001 146.03218999999999 191.33996000000002 158.8456 198.28564000000003 170.3055 C 203.45758000000004 178.83901 211.03100000000003 182.47469 218.35424000000003 185.9916 C 223.13085000000004 188.28402 228.07043000000004 190.65639000000002 232.42266000000004 194.37435 C 247.59930000000003 207.34249 248.03875000000005 221.48829999999998 242.61455000000004 236.24007 L 243.37963000000005 236.24007 C 248.66669 221.43207 248.24042 206.81653 232.91638 193.72327 z" transform="translate(-123.21991322707498, -119.91560000000001)" paint-order="stroke" style="stroke: none; stroke-width: 1; stroke-dasharray: none; stroke-linecap: butt; stroke-dashoffset: 0; stroke-linejoin: miter; stroke-miterlimit: 4; fill: rgb(140,201,240); fill-rule: nonzero; opacity: 1;"/>
</g>
		<g id="path-01" transform="matrix(1 0 0 1 -22.46498437565323 11.54216257490593)">
<path stroke-linecap="round" d="M 190.77948 194.11383 C 186.87799 187.06067000000002 182.84363000000002 179.76642 180.32648 171.62695000000002 C 178.65973 166.23571 177.80774 160.36926000000003 176.98432 154.69586 C 175.9339 147.4599 174.84748 139.97839000000002 172.05927 133.34210000000002 C 166.13757999999999 119.24707000000002 155.51734 119.60003000000002 144.271 119.96667000000002 C 135.63105 120.25451000000002 126.69903999999998 120.54577000000002 119.07885999999999 114.41436000000002 C 108.00408999999999 105.50390000000002 104.6377 91.29925000000001 101.07342999999999 76.26080000000002 C 97.46606999999999 61.03845000000002 93.73504999999999 45.29754000000002 81.22100999999999 35.74975000000002 C 61.81665 20.94373 28.62543 20.97345 0 26.4621 L 0 27.31018 C 28.4837 21.82239 61.51654 21.74615 80.76117 36.428219999999996 C 93.04126000000001 45.799009999999996 96.73627 61.38799999999999 100.30914000000001 76.46527 C 103.74975000000002 90.98175 107.30761000000001 105.99396 118.60339000000002 115.08142000000001 C 126.44519000000003 121.39105 135.52075000000002 121.0918 144.29516 120.80395000000001 C 155.26885000000001 120.44073000000002 165.63366000000002 120.10034000000002 171.33965 133.68249 C 174.08483 140.21594 175.16265 147.64154 176.20549 154.82263 C 177.03379999999999 160.53033 177.89061 166.43103 179.5778 171.88739 C 182.12126 180.11365 186.17717 187.44672 190.09965 194.5376 C 193.29068999999998 200.30695 196.58982 206.27167 199.0623 212.69208 C 201.94841 220.18561 203.67351 227.97608 204.27885 236.24005 L 205.07005 236.24005 C 204.46281000000002 227.86731 202.71751 219.97198 199.79161000000002 212.37451 C 197.29816 205.89929 193.98401 199.90833 190.77948 194.11383 z" transform="translate(-102.535025, -129.6622025749059)" paint-order="stroke" style="stroke: none; stroke-width: 1; stroke-dasharray: none; stroke-linecap: butt; stroke-dashoffset: 0; stroke-linejoin: miter; stroke-miterlimit: 4; fill: rgb(140,201,240); fill-rule: nonzero; opacity: 1;"/>
</g>
		<g id="path-01" transform="matrix(1 0 0 1 -31.61478937565323 15.841181630564265)">
<path stroke-linecap="round" d="M 176.96118 183.26617 C 174.58124 169.07298999999998 172.11951000000002 154.39543999999998 167.09015000000002 143.86534999999998 C 161.06195000000002 131.24382999999997 152.20905000000002 130.84404999999998 142.83551000000003 130.42144 C 135.85156000000003 130.10619 128.62994000000003 129.77947 121.80469000000002 124.52757999999999 C 109.12445000000002 114.77189999999999 103.82129000000002 98.77965999999998 98.69239000000002 83.31285999999999 C 93.0036 66.1579 87.12067 48.41693 71.22626 38.59271 C 50.80914 25.97321 22.35876 33.22772 0 39.94312 L 0 40.81348 C 22.25305 34.12067 50.62518 26.82727 70.82935 39.3169 C 86.47364 48.98578 92.30762 66.57825 97.9491 83.59162 C 103.1178 99.17835000000001 108.46289 115.29615000000001 121.34211 125.20606000000001 C 128.35938000000002 130.60535000000002 135.70149 130.93659 142.80213 131.25757000000002 C 151.93848 131.66986000000003 160.56769 132.05939 166.3877 144.24457 C 171.36437999999998 154.66388 173.81537 169.27857 176.18567 183.41242 C 177.62652999999997 192.00648 178.98834 200.12421 180.85681 207.00611 C 183.38898 216.32972 185.08264 225.9975 185.97845 236.24006 L 186.77044 236.24006 C 185.87194 225.9167 184.16668 216.17298 181.61407 206.77424 C 179.7569 199.93457 178.39886 191.83856 176.96118 183.26617 z" transform="translate(-93.38522, -133.96122163056424)" paint-order="stroke" style="stroke: none; stroke-width: 1; stroke-dasharray: none; stroke-linecap: butt; stroke-dashoffset: 0; stroke-linejoin: miter; stroke-miterlimit: 4; fill: rgb(140,201,240); fill-rule: nonzero; opacity: 1;"/>
</g>
		<g id="path-01" transform="matrix(1 0 0 1 -40.08221937565324 19.409154206043567)">
<path stroke-linecap="round" d="M 168.94031 213.06329 C 168.37342 195.1419 167.19336 157.84954 159.67969000000002 148.47082 C 154.36365000000004 141.83453 147.65619 141.24743 140.55445000000003 140.62493 C 134.85975000000002 140.12578000000002 128.97089000000003 139.60949 123.75599000000003 135.70763 C 110.67609000000003 125.91996999999999 104.10688000000002 107.95170999999999 97.75385000000003 90.57401999999999 C 90.54029000000003 70.84446999999999 83.08143000000003 50.44211999999999 66.03821000000002 41.77384999999999 C 50.90113000000002 34.07181999999999 30.450620000000022 43.04166999999999 14.016790000000022 50.24680999999999 C 8.97559 52.45642 4.20917 54.54266 0 55.99329 L 0 56.87366 C 4.29736 55.41107 9.16541 53.27912 14.31744 51.02008 C 30.60662 43.88007 50.87799 34.99243 65.69775 42.52765 C 82.45971 51.05322 89.86151 71.29901000000001 97.01916 90.87781000000001 C 103.41467 108.36975000000001 110.02746 126.45911000000001 123.30199999999999 136.39069 C 128.69232 140.42499 134.68982 140.95044000000001 140.48937999999998 141.45868000000002 C 147.42437999999999 142.06635000000003 153.97478999999998 142.63977000000003 159.07947 149.01221 C 166.4151 158.16938000000002 167.58868999999999 195.2641 168.1529 213.09186 C 168.25562 216.34717 168.33686 218.91944 168.43311 220.72644 C 168.70636 225.87842 168.89539 231.07208 169.04737 236.24005 L 169.83558 236.24005 C 169.68336 231.05755 169.49378 225.84869 169.21943 220.67847 C 169.12427 218.88177 169.04303 216.31403 168.94031 213.06329 z" transform="translate(-84.91779, -137.52919420604354)" paint-order="stroke" style="stroke: none; stroke-width: 1; stroke-dasharray: none; stroke-linecap: butt; stroke-dashoffset: 0; stroke-linejoin: miter; stroke-miterlimit: 4; fill: rgb(140,201,240); fill-rule: nonzero; opacity: 1;"/>
</g>
		<g id="path-01" transform="matrix(1 0 0 1 -43.89186125442002 24.30109049063263)">
<path stroke-linecap="round" d="M 137.45758 149.68042 C 132.56592 148.70837 127.50745 147.70325 122.49908 143.90308 C 108.35534000000001 133.17188 101.04443 115.01288 93.97393000000001 97.45355999999998 C 87.12121 80.43335999999998 80.03515000000002 62.83294999999998 66.72991000000002 52.271979999999985 C 53.01111 41.37976 23.34088 57.20178 3.70685 67.66791 C 2.42651 68.3504 1.19269 69.00745 0 69.63794 L 0 70.57318 C 1.29944 69.88750999999999 2.65533 69.1651 4.06073 68.41608 C 23.52209 58.04248 52.93311 42.36322 66.25763 52.941289999999995 C 79.39343000000001 63.36865999999999 86.43756 80.86402 93.24939 97.78254 C 100.36243 115.44812999999999 107.71741 133.71564999999998 122.04077000000001 144.58381 C 127.19116000000001 148.49134 132.33673000000002 149.51368 137.31293 150.50281999999999 C 143.14637 151.66217999999998 148.65662 152.75642 153.8183 158.32587999999998 C 163.77649 169.06958999999998 161.69397 190.60499 160.02069 207.91071999999997 C 159.6308 211.94275999999996 159.26288 215.75208999999998 159.0827 219.10218999999998 C 158.79602 224.43409999999997 158.40502999999998 229.65175 158.02691 234.69923999999997 C 157.98820999999998 235.21461999999997 157.9508 235.72609999999997 157.91234999999998 236.24006999999997 L 158.70299999999997 236.24006999999997 C 158.73979999999997 235.74806999999998 158.77562999999998 235.25861999999998 158.81273999999996 234.76545999999996 C 159.19078999999996 229.71455999999995 159.58183999999997 224.49122999999997 159.86907999999997 219.15015999999997 C 160.04815999999997 215.81830999999997 160.41607999999997 212.01813999999996 160.80492999999996 207.99524999999997 C 162.49480999999994 190.51587999999998 164.59832999999995 168.76349999999996 154.37981999999997 157.73877999999996 C 149.04492 151.98309 143.41638 150.86487 137.45758 149.68042 z" transform="translate(-81.10814812123321, -142.4211304906326)" paint-order="stroke" style="stroke: none; stroke-width: 1; stroke-dasharray: none; stroke-linecap: butt; stroke-dashoffset: 0; stroke-linejoin: miter; stroke-miterlimit: 4; fill: rgb(140,201,240); fill-rule: nonzero; opacity: 1;"/>
</g>
		<g id="path-01" transform="matrix(1 0 0 1 -45.767491462986754 27.14701803037501)">
<path stroke-linecap="round" d="M 150.81445 162.34412 C 145.23431 156.30982 138.48113999999998 154.71753 131.95006999999998 153.17786 C 126.37364999999998 151.86316000000002 120.60692999999998 150.50275000000002 115.37041999999998 146.43073 C 101.75920999999998 135.84583 94.87316999999999 118.45667 88.21355999999997 101.63862 C 81.85247999999997 85.57447 75.27465999999997 68.96430000000001 62.84130999999997 58.51527 C 48.341 46.32892 19.6131 63.29089 0.60345 74.51434 C 0.39856 74.63544 0.20276 74.75055 0 74.87048 L 0 75.82733 C 0.32941 75.63263 0.65161 75.44299000000001 0.98639 75.24542000000001 C 19.81262 64.13049000000001 48.26569 47.33301000000001 62.35181 59.17096000000001 C 74.62653 69.48633000000001 81.16455 85.99713000000001 87.48694 101.96307000000002 C 94.18793000000001 118.88617000000002 101.11756 136.38495 114.90466 147.10699000000002 C 120.27502000000001 151.28179000000003 126.12359000000001 152.66156000000004 131.77899000000002 153.99456000000004 C 138.49347000000003 155.57763000000003 144.83575000000002 157.07281000000003 150.25183 162.93127000000004 C 160.17132 173.65783000000005 157.90375 195.81689000000006 156.08209000000002 213.62182000000004 C 155.65289 217.81371000000004 155.24786000000003 221.77380000000005 155.04944000000003 225.20733000000004 C 154.83270000000005 228.95611000000005 154.56110000000004 232.62261000000004 154.28302000000002 236.23998000000003 L 155.07361000000003 236.23998000000003 C 155.35010000000003 232.64000000000004 155.61981000000003 228.99090000000004 155.83576000000002 225.25756000000004 C 156.03315000000003 221.84460000000004 156.43763 217.89483000000004 156.86518 213.71203000000003 C 158.70514 195.7312 160.9953 173.354 150.81445 162.34412 z" transform="translate(-79.23251791266648, -145.26705803037498)" paint-order="stroke" style="stroke: none; stroke-width: 1; stroke-dasharray: none; stroke-linecap: butt; stroke-dashoffset: 0; stroke-linejoin: miter; stroke-miterlimit: 4; fill: rgb(140,201,240); fill-rule: nonzero; opacity: 1;"/>
</g>
		<g id="path-01" transform="matrix(1 0 0 1 -47.62789671817552 30.001988017392122)">
<path stroke-linecap="round" d="M 147.33026 164.94275 C 140.82446000000002 157.5069 132.04364 154.99517999999998 123.55157000000001 152.56677 C 116.41601000000001 150.52562999999998 109.03729000000001 148.41478999999998 102.87200000000001 143.41534 C 90.88018000000001 133.69164999999998 85.24200000000002 118.18829 79.78985000000002 103.19548999999998 C 74.59265000000002 88.90404999999998 69.21795000000002 74.12602999999999 58.33734000000001 64.58849999999998 C 44.33887 52.31537 18.78961 67.25275 0 79.31458 L 0 80.29230000000001 C 18.63147 68.31153 44.14551 53.230840000000015 57.83606 65.23273 C 68.5575 74.63202000000001 73.89398 89.30609000000001 79.05463 103.49707000000001 C 84.54651 118.59833 90.2251 134.21362000000002 102.39331 144.08008 C 106.28381 147.23517 110.62097 149.25324 115.06976 150.82263 C 114.71502 150.71014 114.3598 150.59674 114.00592 150.4845 C 104.92169 147.60381999999998 95.52881000000001 144.6261 88.11084 138.28333 C 78.08215 129.70759 74.02575999999999 116.51148 70.10271999999999 103.74952 C 66.3706 91.60883000000001 62.51158999999999 79.05586 53.49242999999999 70.72907000000001 C 40.55139 58.77631 18.31793 70.78107 0 83.07928 L 0 84.07074 C 18.18372 71.81787 40.33325 59.686949999999996 52.97504 71.35956 C 61.83014 79.53559 65.65473 91.97663 69.35352 104.00989 C 73.31257000000001 116.88727 77.40558 130.20441 87.61658 138.93439 C 95.15496999999999 145.38105000000002 104.62378 148.38282 113.78003 151.28632000000002 C 125.02582 154.8512 135.64722 158.21845000000002 143.20227 167.39051 C 153.21912 179.5517 150.29327 204.14594 147.94287 223.90864 C 147.41925 228.3108 146.9223 232.5016 146.60820999999999 236.24006 L 147.39964999999998 236.24006 C 147.71238999999997 232.53529 148.20530999999997 228.37934 148.72436 224.01374 C 151.09515 204.08546 154.04528 179.28333 143.79497999999998 166.83997000000002 C 137.34221999999997 159.0055 128.41723 155.23847000000004 119.30852999999998 152.19819 C 120.65715999999998 152.60511000000002 122.00609999999998 152.99116 123.34667999999998 153.37434000000002 C 132.11730999999997 155.88270000000003 140.40117999999998 158.25276000000002 146.75261999999998 165.51161000000002 C 156.66937 176.84468 154.11357999999998 200.12428000000003 152.06005 218.82924000000003 C 151.55125999999998 223.46553000000003 151.07043 227.84474000000003 150.83593 231.61067000000003 C 150.73913 233.16810000000004 150.62426 234.70094000000003 150.51403 236.24006000000003 L 151.30413 236.24006000000003 C 151.41302 234.71894000000003 151.52648 233.20521000000002 151.62224999999998 231.66548000000003 C 151.85515999999998 227.92012000000003 152.33489999999998 223.55116000000004 152.84265 218.92518000000004 C 154.91498 200.04999 157.49445 176.55798 147.33026 164.94275 z" transform="translate(-77.37211265747771, -148.1220280173921)" paint-order="stroke" style="stroke: none; stroke-width: 1; stroke-dasharray: none; stroke-linecap: butt; stroke-dashoffset: 0; stroke-linejoin: miter; stroke-miterlimit: 4; fill: rgb(140,201,240); fill-rule: nonzero; opacity: 1;"/>
</g>
		<g id="path-01" transform="matrix(1 0 0 1 -51.44977231074088 35.94580430134381)">
<path stroke-linecap="round" d="M 140.03601 169.81085 C 131.36487 158.86493 118.13068000000001 154.46965999999998 105.33160000000001 150.21838 C 94.6333 146.66491 83.57037000000001 142.99041 75.12298000000001 135.51916 C 66.59008000000001 127.97137 63.91802000000001 116.63481999999999 61.334220000000016 105.67065 C 58.876820000000016 95.24449999999999 56.336050000000014 84.46422999999999 48.69756000000002 77.2785 C 36.28839 65.60333 17.03003 74.86389 0 86.48798 L 0 87.482 C 16.90607 75.87763 36.05066 66.49604 48.17474 77.90449 C 55.63092 84.91883 58.02972 95.09718 60.56939 105.87402999999999 C 63.18438 116.96838999999999 65.88818 128.4397 74.61846 136.16108 C 83.18578 143.73969 94.32458 147.43934 105.09649 151.01679 C 117.78698 155.23156999999998 130.91039 159.59143999999998 139.43255 170.34998 C 149.51445999999999 183.07659999999998 146.27123 208.77082 143.6654 229.41755 C 143.37011 231.7577 143.08288000000002 234.03986 142.82257 236.24006 L 143.6167 236.24006 C 143.87354000000002 234.07496 144.15588 231.82935 144.44635 229.52833 C 147.07318 208.71942 150.34167 182.82074 140.03601 169.81085 z" transform="translate(-73.55023706491235, -154.0658443013438)" paint-order="stroke" style="stroke: none; stroke-width: 1; stroke-dasharray: none; stroke-linecap: butt; stroke-dashoffset: 0; stroke-linejoin: miter; stroke-miterlimit: 4; fill: rgb(140,201,240); fill-rule: nonzero; opacity: 1;"/>
</g>
		<g id="path-01" transform="matrix(1 0 0 1 -53.6532244080483 39.25332527790884)">
<path stroke-linecap="round" d="M 99.72772 155.40747 C 88.54004 151.70325 76.97149 147.87224999999998 68.22186 140.06627999999998 C 59.883660000000006 132.62700999999998 57.646240000000006 121.81816999999998 55.481930000000006 111.36687999999998 C 53.45855 101.59404999999998 51.366330000000005 91.48772999999998 44.23449000000001 84.41167999999998 C 32.7865 73.05548 15.81049 79.80457 0 90.14282 L 0 91.12512 C 15.68304 80.7923 32.51837 73.93097 43.69666 85.02391999999999 C 50.64942 91.92181 52.62275 101.45361 54.71228 111.54625999999999 C 56.90454 122.13463999999999 59.17157 133.08508 67.71521 140.70598999999999 C 76.58588 148.62151999999998 88.23132 152.47766 99.49268000000001 156.20702999999997 C 112.71186 160.58397999999997 126.38117000000001 165.11058999999997 135.16797 176.25750999999997 C 145.16437 188.94073999999998 141.81677 215.04614999999995 139.12702 236.02300999999997 C 139.11762 236.09581999999997 139.10877 236.16723999999996 139.09937 236.24004999999997 L 139.89454 236.24004999999997 C 139.89912 236.20519999999996 139.90339 236.17089999999996 139.90797 236.13610999999997 C 142.61872 214.99590999999998 145.99263000000002 188.68713999999997 135.77253000000002 175.72069999999997 C 126.83673 164.38416 113.05554 159.82098 99.72772 155.40747 z" transform="translate(-71.34678496760493, -157.37336527790882)" paint-order="stroke" style="stroke: none; stroke-width: 1; stroke-dasharray: none; stroke-linecap: butt; stroke-dashoffset: 0; stroke-linejoin: miter; stroke-miterlimit: 4; fill: rgb(140,201,240); fill-rule: nonzero; opacity: 1;"/>
</g>
		<g id="path-01" transform="matrix(1 0 0 1 -55.9626573110323 43.30175529326111)">
<path stroke-linecap="round" d="M 95.65198 164.36249 C 84.46643 161.21448 72.90057999999999 157.96033 64.11438 150.21839 C 55.47656 142.60773 53.31604 131.13074 51.22705 120.03297 C 49.249939999999995 109.53364 47.206109999999995 98.67573 39.569269999999996 91.52772 C 29.85309 82.43311 14.80042 87.19531 0 95.62689 L 0 96.57062 C 14.67566 88.13996 29.5788 83.29090000000001 39.04865 92.15595 C 46.485420000000005 99.11664 48.413030000000006 109.35663 50.454170000000005 120.19745 C 52.57056000000001 131.43799 54.75855000000001 143.06238000000002 63.610910000000004 150.86261000000002 C 72.53108 158.72217 84.18244 162.00037000000003 95.44972 165.17114 C 108.386 168.81140000000002 121.76222 172.57501000000002 130.51185 183.36902 C 139.50434 194.46137000000002 137.76203 216.5979 135.34712000000002 236.24005 L 136.14204 236.24005 C 138.57069 216.45453 140.29902 194.15924 131.1089 182.82299999999998 C 122.20001 171.83258 108.70386 168.03473 95.65198 164.36249 z" transform="translate(-69.03735206462093, -161.42179529326108)" paint-order="stroke" style="stroke: none; stroke-width: 1; stroke-dasharray: none; stroke-linecap: butt; stroke-dashoffset: 0; stroke-linejoin: miter; stroke-miterlimit: 4; fill: rgb(140,201,240); fill-rule: nonzero; opacity: 1;"/>
</g>
		<g id="path-01" transform="matrix(1 0 0 1 -58.26389282222347 47.37040988402576)">
<path stroke-linecap="round" d="M 91.78857 174.48254 C 80.68261000000001 172.25976 69.19805000000001 169.96167 60.36554000000001 162.45611 C 50.88550000000001 154.40117999999998 48.79865000000001 141.81737999999999 46.78064000000001 129.64812999999998 C 44.90033000000001 118.30706999999998 42.95551000000001 106.58104999999998 34.937320000000014 98.86534999999998 C 27.26685 91.48175 13.83527 94.96295 0 101.83911 L 0 102.75091 C 13.70001 95.87731000000001 26.96729 92.32354000000001 34.40808 99.48443 C 42.2262 107.00823 44.06189 118.07519 46.00458 129.79321 C 48.04785 142.11548 50.16101 154.85692999999998 59.87287 163.10949 C 68.8592 170.74517 80.44172 173.06274 91.64283 175.30383 C 104.74207 177.92517 117.11414 180.40039000000002 125.86219 190.59924 C 133.86854 199.93145 133.43073 218.38574 131.52515 236.24005 L 132.31794 236.24005 C 134.23316 218.23328 134.64735 199.59595 126.4452 190.03503 C 117.51965 179.63055 104.43872 177.01373 91.78857 174.48254 z" transform="translate(-66.73611655342977, -165.49044988402574)" paint-order="stroke" style="stroke: none; stroke-width: 1; stroke-dasharray: none; stroke-linecap: butt; stroke-dashoffset: 0; stroke-linejoin: miter; stroke-miterlimit: 4; fill: rgb(140,201,240); fill-rule: nonzero; opacity: 1;"/>
</g>
		<g id="path-01" transform="matrix(1 0 0 1 -60.55726603508056 51.408242068071544)">
<path stroke-linecap="round" d="M 87.94946 184.44269 C 76.89892 183.16681 65.47186 181.8476 56.59961 174.40943 C 46.59943 166.02442 44.59168 152.40345 42.65003 139.23022999999998 C 40.828920000000004 126.87255999999998 38.94538 114.09454999999997 30.31727 106.13214999999997 C 24.06349 100.36194999999996 12.5124 102.79889999999996 0.000009999999999621423 108.27521999999996 L 0.000009999999999621423 109.15845999999996 C 12.37342 103.68378999999996 23.75636 101.18579999999996 29.799879999999998 106.76264999999997 C 38.2112 114.52515999999997 39.989329999999995 126.58814999999997 41.87178 139.35932999999997 C 43.83656 152.69129999999998 45.86855 166.47791999999998 56.11122 175.06623999999996 C 65.16157 182.65284999999997 76.70265 183.98579999999995 87.86397 185.27540999999997 C 100.52004 186.73628999999997 112.47364999999999 188.11720999999997 121.23725999999999 197.77925999999997 C 128.18623 205.44038999999998 128.74397 220.77412999999996 127.54670999999999 236.24007999999998 L 128.36507 236.24007999999998 C 129.62203 220.40718999999999 129.02205 205.15542 121.80526 197.19899999999998 C 112.84308 187.31763 100.18817 185.85675 87.94946 184.44269 z" transform="translate(-64.44274334057268, -169.52828206807152)" paint-order="stroke" style="stroke: none; stroke-width: 1; stroke-dasharray: none; stroke-linecap: butt; stroke-dashoffset: 0; stroke-linejoin: miter; stroke-miterlimit: 4; fill: rgb(140,201,240); fill-rule: nonzero; opacity: 1;"/>
</g>
		<g id="path-01" transform="matrix(1 0 0 1 -62.86675283542936 55.25479074690746)">
<path stroke-linecap="round" d="M 83.72742 192.73749 C 72.75103999999999 191.98133 61.400389999999994 191.19892000000002 52.447939999999996 183.7768 C 42.2273 175.30494000000002 40.279239999999994 161.11628000000002 38.3946 147.39368000000002 C 36.612739999999995 134.41577 34.76954 120.99585000000002 25.71973 113.07453000000001 C 20.73847 108.71613 11.037109999999998 110.37293000000001 0 114.59827000000001 L 0 115.45435000000002 C 10.89349 111.23188000000002 20.42627 109.52485000000001 25.21844 113.72107000000003 C 34.03375 121.43561000000003 35.77313 134.10394000000002 37.61474 147.51477000000003 C 39.521359999999994 161.39960000000002 41.4931 175.75726000000003 51.962819999999994 184.43701000000004 C 61.10668 192.01678000000004 72.58055999999999 192.80719000000005 83.67680999999999 193.57245000000003 C 96.10479 194.42914000000002 107.84434999999999 195.23779000000002 116.65319 204.74335000000002 C 122.59289 211.15235 123.88018 223.22217 123.38915 236.24005000000002 L 124.17388 236.24005000000002 C 124.66387 223.03967000000003 123.33269 210.75714000000002 117.21471 204.15625000000003 C 108.19507 194.4234 95.75684 193.56677 83.72742 192.73749 z" transform="translate(-62.133256540223876, -173.37483074690743)" paint-order="stroke" style="stroke: none; stroke-width: 1; stroke-dasharray: none; stroke-linecap: butt; stroke-dashoffset: 0; stroke-linejoin: miter; stroke-miterlimit: 4; fill: rgb(140,201,240); fill-rule: nonzero; opacity: 1;"/>
</g>
		<g id="path-01" transform="matrix(1 0 0 1 -64.57702437565322 58.322564471239396)">
<path stroke-linecap="round" d="M 79.65375 199.58057 C 68.36005 199.38636 56.68238 199.18537 47.370670000000004 191.52447999999998 C 37.018190000000004 183.00921999999997 35.90003 168.52471999999997 34.81897000000001 154.51770999999997 C 33.754580000000004 140.72882999999996 32.74933000000001 127.70410999999996 23.565610000000007 119.96442999999996 C 14.89752 114.96863 6.99493 115.62085 0 121.86224 L 0 122.95733 C 6.88336 116.44323 14.50244 115.69366 23.13269 120.66003 C 27.68854 124.50415000000001 30.156190000000002 129.7752 31.62878 135.83355 C 30.307859999999998 132.34295 28.207269999999998 129.36089 24.93988 127.09985 C 16.6264 121.34937 7.5094 123.53497 0 132.76495 L 0 134.07025 C 7.383 124.55554 16.36664 122.16832999999998 24.50958 127.80114999999999 C 28.38476 130.48255 30.53912 134.27410999999998 31.68927 138.76136 C 30.61548 136.92152 29.14154 135.32209 27.15527 134.02399 C 23.3446 131.53278 19.37585 130.80176 15.361390000000002 131.85608 C 9.73743 133.32983 4.27911 138.32501 0 145.86877 L 0 147.20349000000002 C 0.1474 147.02984 0.29773 146.86255000000003 0.44427 146.68664 C 4.68621 139.08746000000002 10.05126 134.10852 15.55017 132.66815000000003 C 19.35217 131.67328000000003 23.11816 132.36889000000002 26.74219 134.73675000000003 C 29.695500000000003 136.66705000000002 31.46552 139.32531000000003 32.41754 142.50750000000002 C 32.53369 143.37017000000003 32.6203 144.25457000000003 32.686710000000005 145.1535 C 31.709480000000006 143.29394000000002 30.268560000000004 141.70398 28.230960000000003 140.45355 C 24.592960000000005 138.22162 20.808660000000003 137.68481 16.98297 138.86242000000001 C 11.137690000000003 140.65911000000003 5.360720000000002 146.59637 1.1676600000000015 155.09448 C 0.7833800000000015 155.63562000000002 0.39288000000000145 156.16131000000001 1.5543122344752192e-15 156.68048000000002 L 1.5543122344752192e-15 157.98431000000002 C 0.6193200000000015 157.19275000000002 1.2321800000000016 156.38494000000003 1.8313600000000017 155.54113 C 5.9593500000000015 147.18578000000002 11.561520000000002 141.39928 17.202450000000002 139.6654 C 20.813530000000004 138.55743 24.39233 139.06347 27.836180000000002 141.17773 C 30.41833 142.76226 31.983760000000004 144.95391 32.81445 147.59814 C 32.89459 150.16125 32.83087 152.83691 32.6961 155.58282 C 32.27123 151.56848 30.54797 148.30346 26.79382 146.16003 C 23.21338 144.11663000000001 19.51837 143.73284 15.80835 145.02356 C 9.86353 147.09210000000002 4.10107 153.52283 0.02741000000000149 162.61603 C 0.018320000000001488 162.63031 0.008860000000001488 162.64398 0.000010000000001487985 162.65827 L 0.000010000000001487985 164.1186 C 0.23719000000000148 163.75599 0.4773700000000015 163.40131 0.7110100000000015 163.02838999999997 C 4.720650000000002 154.08819999999997 10.312630000000002 147.81628999999998 16.0536 145.81971 C 19.54957 144.60211999999999 23.03749 144.96643999999998 26.42054 146.89795999999998 C 36.19428 152.47656999999998 31.22242 166.61378 25.95856 181.58026999999998 C 20.1482 198.10133 14.139409999999998 215.18549 25.497069999999997 224.69903999999997 C 36.943479999999994 234.28570999999997 51.77185 229.84478999999996 66.11401 225.54998999999998 C 80.48039999999999 221.24499999999998 95.33623999999999 216.79601999999997 106.51477 226.71392999999998 C 108.96466 228.88726999999997 110.56097 232.18603999999996 111.51727 236.24004999999997 L 112.29986 236.24004999999997 C 111.31182 231.92388999999997 109.63646999999999 228.39299999999997 107.02037999999999 226.07201999999998 C 95.52177999999999 215.87201 80.46264 220.38378999999998 65.89996 224.74358999999998 C 51.74981 228.98242 37.11717999999999 233.36853 25.985409999999995 224.04113999999998 C 15.078979999999994 214.9057 20.985039999999994 198.1128 26.696959999999994 181.87267999999997 C 27.112979999999993 180.68963999999997 27.526369999999993 179.51287999999997 27.931879999999992 178.34350999999998 C 23.284049999999993 193.82715 19.174919999999993 209.46984999999998 29.729909999999993 218.26611999999997 C 40.92350999999999 227.59576999999996 55.43565999999999 223.72021999999998 69.47021 219.97259999999997 C 83.58427999999999 216.20440999999997 98.1798 212.30603999999997 109.11041 222.10736999999997 C 112.41766 225.07202999999998 114.17395 230.09235999999999 114.91382 236.24005999999997 L 115.77167 236.24005999999997 C 115.00794 229.85278999999997 113.14643 224.62970999999996 109.61927 221.46771999999999 C 98.3783 211.39105999999998 83.5843 215.34204999999997 69.27821 219.16162999999997 C 55.42653 222.86127999999997 41.105360000000005 226.68194999999997 30.216140000000003 217.60815999999997 C 19.916400000000003 209.02410999999998 24.250870000000003 193.30975999999998 28.904070000000004 177.85980999999998 C 26.662550000000003 190.59240999999997 26.073930000000004 202.76673 35.04384 210.19061999999997 C 45.817400000000006 219.10675999999998 59.54213 216.43286999999998 72.81508 213.84570999999997 C 86.28218 211.21972999999997 100.20801999999999 208.50695999999996 110.6288 218.27527999999998 C 114.60292 221.99945999999997 116.40468 228.45869 116.90816 236.24005999999997 L 117.68531999999999 236.24005999999997 C 117.17005999999999 228.22143999999997 115.29946 221.53570999999997 111.15052999999999 217.64703999999998 C 100.44257999999999 207.61151999999998 86.32520999999998 210.36193999999998 72.67304999999999 213.02215999999999 C 59.569529999999986 215.57734 46.02228999999999 218.21581999999998 35.52790999999999 209.5304 C 25.11280999999999 200.91094999999999 28.12202999999999 185.34339 31.186659999999993 170.19751 C 31.456919999999993 169.2569 31.717789999999994 168.32404 31.967359999999992 167.39996 C 31.229929999999992 180.44867 31.537609999999994 193.26806 40.97785999999999 201.16595 C 51.10602999999999 209.63891 63.85560999999999 208.46246000000002 76.1841 207.32824000000002 C 89.4565 206.10259000000002 101.99263 204.95013000000003 111.71309 214.67956 C 116.20380999999999 219.17474 117.96876999999999 227.03692 118.26082 236.24005 L 119.03908 236.24005 C 118.73897 226.81964 116.91481 218.73552999999998 112.25362 214.06958 C 102.27712 204.08545 88.9778 205.30762000000001 76.11580000000001 206.49438 C 63.940630000000006 207.61718000000002 51.349140000000006 208.77655000000001 41.46517000000001 200.50805 C 31.320330000000006 192.02136 32.07143000000001 177.43664 33.02096000000001 163.18859 C 33.55050000000001 160.86217 33.95846000000001 158.61797 34.182460000000006 156.48919 C 35.24978000000001 170.07244 36.735870000000006 183.83477000000002 46.88772000000001 192.18694 C 56.40701000000001 200.01799 68.21865000000001 200.22129999999999 79.64083000000001 200.41777 C 92.28182000000001 200.63481 104.22195 200.84037999999998 113.31533000000002 210.51041999999998 C 118.39040000000001 215.90739 120.04024000000001 225.45578999999998 120.06417000000002 236.24003 L 120.84597000000002 236.24003 C 120.81716000000003 225.25790999999998 119.11568000000003 215.49479 113.87252000000002 209.91873999999999 C 104.55377 200.01001 91.89563 199.79187 79.65375 199.58057 z" transform="translate(-60.42298500000001, -176.44260447123938)" paint-order="stroke" style="stroke: none; stroke-width: 1; stroke-dasharray: none; stroke-linecap: butt; stroke-dashoffset: 0; stroke-linejoin: miter; stroke-miterlimit: 4; fill: rgb(140,201,240); fill-rule: nonzero; opacity: 1;"/>
</g>
</g>
</g>
<g id="shape-44a03d8a-610d-47cf-ad47-efd2adfb02ca" transform="matrix(0.40273633547489546 0 0 0.40273633547489546 182.63365995797562 640.4941035661294)">
<g paint-order="stroke" style="">
		<g id="Layer_1" transform="matrix(1 0 0 1 0 0)">
<path stroke-linecap="round" d="M 200 100 C 200 155.22847498307934 155.22847498307934 200 100 200 C 44.771525016920656 200 0 155.22847498307934 0 100 C 0 44.771525016920656 44.771525016920656 0 100 0 C 155.22847498307934 0 200 44.77152501692063 200 99.99999999999997 Z" transform="translate(-100, -100)" paint-order="stroke" style="stroke: none; stroke-width: 1; stroke-dasharray: none; stroke-linecap: butt; stroke-dashoffset: 0; stroke-linejoin: miter; stroke-miterlimit: 4; fill: rgb(140,201,240); fill-rule: nonzero; opacity: 1;"/>
</g>
</g>
</g>
<g id="shape-07b15378-7c2e-4427-8b18-23794ccc1e78" transform="matrix(0.40273633547489546 0 0 0.40273633547489546 398.34817690622697 680.767737113619)">
<g paint-order="stroke" style="">
		<g id="Layer_1" transform="matrix(1 0 0 1 0 0)">
<path stroke-linecap="round" d="M 200 100 C 200 155.22847498307934 155.22847498307934 200 100 200 C 44.771525016920656 200 0 155.22847498307934 0 100 C 0 44.771525016920656 44.771525016920656 0 100 0 C 155.22847498307934 0 200 44.77152501692063 200 99.99999999999997 Z" transform="translate(-100, -100)" paint-order="stroke" style="stroke: none; stroke-width: 1; stroke-dasharray: none; stroke-linecap: butt; stroke-dashoffset: 0; stroke-linejoin: miter; stroke-miterlimit: 4; fill: rgb(140,201,240); fill-rule: nonzero; opacity: 1;"/>
</g>
</g>
</g>
<g id="shape-a6d1a056-9025-4fa5-b5e0-c788251fb5be" transform="matrix(0.40273633547489546 0 0 0.40273633547489546 245.72812282750743 518.5903706954722)">
<g paint-order="stroke" style="">
		<g id="Layer_1" transform="matrix(1 0 0 1 0 0)">
<path stroke-linecap="round" d="M 200 100 C 200 155.22847498307934 155.22847498307934 200 100 200 C 44.771525016920656 200 0 155.22847498307934 0 100 C 0 44.771525016920656 44.771525016920656 0 100 0 C 155.22847498307934 0 200 44.77152501692063 200 99.99999999999997 Z" transform="translate(-100, -100)" paint-order="stroke" style="stroke: none; stroke-width: 1; stroke-dasharray: none; stroke-linecap: butt; stroke-dashoffset: 0; stroke-linejoin: miter; stroke-miterlimit: 4; fill: rgb(140,201,240); fill-rule: nonzero; opacity: 1;"/>
</g>
</g>
</g>
<g id="shape-284f5acf-7422-4e57-b6d7-7f03a9f96981" transform="matrix(0.40273633547489546 0 0 0.40273633547489546 133.54965029726753 375.85961673815484)">
<g paint-order="stroke" style="">
		<g id="Layer_1" transform="matrix(1 0 0 1 0 0)">
<path stroke-linecap="round" d="M 200 100 C 200 155.22847498307934 155.22847498307934 200 100 200 C 44.771525016920656 200 0 155.22847498307934 0 100 C 0 44.771525016920656 44.771525016920656 0 100 0 C 155.22847498307934 0 200 44.77152501692063 200 99.99999999999997 Z" transform="translate(-100, -100)" paint-order="stroke" style="stroke: none; stroke-width: 1; stroke-dasharray: none; stroke-linecap: butt; stroke-dashoffset: 0; stroke-linejoin: miter; stroke-miterlimit: 4; fill: rgb(140,204,243); fill-rule: nonzero; opacity: 1;"/>
</g>
</g>
</g>
</svg>